<svg version="1.1" xmlns="http://www.w3.org/2000/svg" x="0" y="0" viewBox="0 0 295.93 295.93" xml:space="preserve">
  <path d="M147.96 295.93C66.38 295.93 0 229.55 0 147.96 0 66.38 66.38 0 147.96 0c81.59 0 147.97 66.38 147.97 147.96 0 81.59-66.38 147.97-147.97 147.97zm0-279.93C75.2 16 16 75.2 16 147.96s59.2 131.96 131.96 131.96c72.77 0 131.97-59.2 131.97-131.96S220.73 16 147.96 16z"/>
  <path d="M222.66 143.48c-4.56 0-8.26 3.71-8.26 8.26 0 36.64-29.8 66.44-66.44 66.44s-66.44-29.81-66.44-66.44c0-4.55-3.71-8.26-8.26-8.26S65 147.19 65 151.74c0 45.75 37.22 82.96 82.96 82.96 45.75 0 82.96-37.22 82.96-82.96.01-4.55-3.7-8.26-8.26-8.26z"/>
  <path d="m208.73 80.37-12.68 12.68-12.68-12.68c-3.12-3.12-8.19-3.12-11.31 0-3.12 3.12-3.12 8.19 0 11.31l12.68 12.68-12.68 12.68c-3.12 3.12-3.12 8.19 0 11.31s8.19 3.12 11.31 0l12.68-12.68 12.68 12.68c3.12 3.12 8.19 3.12 11.31 0 3.12-3.12 3.12-8.19 0-11.31l-12.68-12.68 12.68-12.68c3.12-3.12 3.12-8.19 0-11.31-3.12-3.12-8.18-3.12-11.31 0z"/>
  <path d="M112.56 80.37 99.88 93.05 87.19 80.37c-3.12-3.12-8.19-3.12-11.31 0s-3.12 8.19 0 11.31l12.68 12.68-12.68 12.68c-3.12 3.12-3.12 8.19 0 11.31 3.12 3.12 8.19 3.12 11.31 0l12.68-12.68 12.68 12.68c3.12 3.12 8.19 3.12 11.31 0 3.12-3.12 3.12-8.19 0-11.31l-12.68-12.68 12.68-12.68c3.12-3.12 3.12-8.19 0-11.31-3.11-3.12-8.17-3.12-11.3 0z"/>
</svg>
